<svg id="siggraph-logo" xmlns="http://www.w3.org/2000/svg" viewBox="0 0 576 136.49">
  <path fill="#b3a8a4" id="under-text" d="M209 115.23a4.46 4.46 0 011.37.92 4.6 4.6 0 01.92 1.36 4.3 4.3 0 01.34 1.67v1.3a.58.58 0 01-.45.61l-3.1.82c-.29.09-.44 0-.44-.34v-2.22a.8.8 0 00-.24-.58.82.82 0 00-.58-.23h-.27a.82.82 0 00-.58.23.8.8 0 00-.24.58v3.11a2.24 2.24 0 00.14.64 1.41 1.41 0 00.37.55l4.47 3.34a2.31 2.31 0 01.7 1 6.61 6.61 0 01.22 1.11v5.86a4.26 4.26 0 01-.34 1.67 4.52 4.52 0 01-.92 1.37 4.64 4.64 0 01-1.37.92 4.26 4.26 0 01-1.67.34h-1.29a4.26 4.26 0 01-1.67-.34 4.28 4.28 0 01-2.29-2.29 4.26 4.26 0 01-.34-1.67v-3.27a.58.58 0 01.44-.61l3.11-.82c.29-.09.44 0 .44.34v4.19a.82.82 0 00.82.82h.27a.82.82 0 00.82-.82v-4.5a3.5 3.5 0 00-.14-.78 1.35 1.35 0 00-.41-.62l-4.39-3.37a3.37 3.37 0 01-.74-.95 3.18 3.18 0 01-.22-1.27v-4.09a4.3 4.3 0 01.34-1.67 4.6 4.6 0 01.92-1.36 4.34 4.34 0 011.37-.92 4.09 4.09 0 011.67-.34h1.29a4.09 4.09 0 011.67.31zM223 130.5a3.45 3.45 0 01-.2.32l-.21.33a16.4 16.4 0 00-.85 1.53c-.22.48-.41.9-.54 1.26s-.3.81-.41 1.2H226c.21 0 .31.1.31.3v3.24a.27.27 0 01-.31.31h-9c-.16 0-.26-.1-.3-.31a9.38 9.38 0 01-.12-1.28 10.62 10.62 0 010-1.14 10.23 10.23 0 01.14-1.16 6.59 6.59 0 01.24-1.22c.11-.39.23-.74.34-1.06a9.17 9.17 0 01.44-1c.59-1.07 1.15-2 1.67-2.83s1-1.52 1.4-2.11.92-1.27 1.33-1.77a1.47 1.47 0 00.14-.72 5.64 5.64 0 010-1v-4a.8.8 0 00-.24-.58.82.82 0 00-.58-.23h-.27a.8.8 0 00-.82.81v2.25a.59.59 0 01-.45.62l-3.1.82c-.29.09-.44 0-.44-.35v-3.51a4.12 4.12 0 01.34-1.67 4.33 4.33 0 012.28-2.28 4.12 4.12 0 011.67-.34H222a4.09 4.09 0 011.67.34 4.3 4.3 0 011.36.92 4.25 4.25 0 01.92 1.36 4.12 4.12 0 01.34 1.67v4.06a8.22 8.22 0 01-.25 2.05 6.26 6.26 0 01-.84 1.87c-.34.55-.71 1.1-1.1 1.67s-.77 1.13-1.1 1.63zM241.34 134.93a4.26 4.26 0 01-.34 1.67 4.52 4.52 0 01-.92 1.37 4.64 4.64 0 01-1.37.92 4.26 4.26 0 01-1.67.34h-1.29a4.26 4.26 0 01-1.67-.34 4.28 4.28 0 01-2.29-2.29 4.09 4.09 0 01-.34-1.67v-15.75a4.12 4.12 0 01.34-1.67 4.6 4.6 0 01.92-1.36 4.34 4.34 0 011.37-.92 4.09 4.09 0 011.67-.34H237a4.09 4.09 0 011.67.34 4.46 4.46 0 011.37.92 4.6 4.6 0 01.92 1.36 4.3 4.3 0 01.34 1.67zm-4-15.58a.8.8 0 00-.24-.58.82.82 0 00-.58-.23h-.27a.82.82 0 00-.58.23.8.8 0 00-.24.58v15.41a.82.82 0 00.82.82h.27a.82.82 0 00.82-.82zM253 130.5a3.45 3.45 0 01-.2.32l-.21.33a16.4 16.4 0 00-.85 1.53c-.22.48-.41.9-.54 1.26s-.3.81-.41 1.2h5.28c.21 0 .31.1.31.3v3.24a.27.27 0 01-.31.31h-9c-.16 0-.26-.1-.3-.31a9.38 9.38 0 01-.12-1.28 10.62 10.62 0 010-1.14 10.23 10.23 0 01.14-1.16 6.59 6.59 0 01.24-1.22c.11-.39.23-.74.34-1.06a9.17 9.17 0 01.44-1c.59-1.07 1.15-2 1.67-2.83s1-1.52 1.4-2.11.92-1.27 1.33-1.77a1.47 1.47 0 00.14-.72 5.64 5.64 0 010-1v-4a.8.8 0 00-.24-.58.82.82 0 00-.58-.23h-.27a.8.8 0 00-.82.81v2.25a.59.59 0 01-.45.62l-3.1.82c-.29.09-.44 0-.44-.35v-3.51a4.12 4.12 0 01.34-1.67 4.33 4.33 0 012.28-2.28 4.12 4.12 0 011.67-.34H252a4.09 4.09 0 011.67.34 4.3 4.3 0 011.36.92 4.25 4.25 0 01.92 1.36 4.12 4.12 0 01.34 1.67v4.06a8.22 8.22 0 01-.25 2.05 6.26 6.26 0 01-.84 1.87c-.34.55-.71 1.1-1.1 1.67s-.74 1.13-1.1 1.63zM271.37 134.93a4.26 4.26 0 01-.34 1.67 4.52 4.52 0 01-.92 1.37 4.64 4.64 0 01-1.37.92 4.26 4.26 0 01-1.67.34h-1.29a4.26 4.26 0 01-1.67-.34 4.28 4.28 0 01-2.29-2.29 4.26 4.26 0 01-.34-1.67v-15.75a4.3 4.3 0 01.34-1.67 4.6 4.6 0 01.92-1.36 4.34 4.34 0 011.37-.92 4.09 4.09 0 011.67-.34h1.29a4.09 4.09 0 011.67.34 4.46 4.46 0 011.37.92 4.6 4.6 0 01.92 1.36 4.3 4.3 0 01.34 1.67zm-4-15.58a.8.8 0 00-.24-.58.82.82 0 00-.58-.23h-.27a.82.82 0 00-.58.23.8.8 0 00-.24.58v15.41a.82.82 0 00.82.82h.27a.82.82 0 00.82-.82zM275.8 137.05a2.16 2.16 0 013.71-1.54 2.12 2.12 0 01.65 1.54 2.16 2.16 0 01-3.71 1.53 2.06 2.06 0 01-.65-1.53zM291.51 115.23a4.46 4.46 0 011.37.92 4.6 4.6 0 01.92 1.36 4.3 4.3 0 01.34 1.67v1.3a.58.58 0 01-.45.61l-3.1.82c-.29.09-.44 0-.44-.34v-2.22a.8.8 0 00-.24-.58.82.82 0 00-.58-.23h-.27a.82.82 0 00-.58.23.8.8 0 00-.24.58v3.11a2.24 2.24 0 00.14.64 1.41 1.41 0 00.37.55l4.47 3.34a2.31 2.31 0 01.7 1 6.61 6.61 0 01.22 1.11v5.86a4.26 4.26 0 01-.34 1.67 4.52 4.52 0 01-.92 1.37 4.64 4.64 0 01-1.37.92 4.26 4.26 0 01-1.67.34h-1.29a4.26 4.26 0 01-1.67-.34 4.28 4.28 0 01-2.29-2.29 4.26 4.26 0 01-.34-1.67v-3.27a.58.58 0 01.44-.61l3.11-.82c.29-.09.44 0 .44.34v4.19a.82.82 0 00.82.82h.27a.82.82 0 00.82-.82v-4.5a3.5 3.5 0 00-.14-.78 1.35 1.35 0 00-.41-.62l-4.39-3.37a3.37 3.37 0 01-.74-.95 3.18 3.18 0 01-.22-1.27v-4.09a4.3 4.3 0 01.34-1.67 4.6 4.6 0 01.92-1.36 4.34 4.34 0 011.37-.92 4.09 4.09 0 011.67-.34h1.29a4.09 4.09 0 011.67.31zM303.07 138.51a.42.42 0 01-.48.48h-3a.42.42 0 01-.48-.48V115.6a.42.42 0 01.48-.47h3a.42.42 0 01.48.47zM315.44 115.23a4.3 4.3 0 011.36.92 4.25 4.25 0 01.92 1.36 4.12 4.12 0 01.34 1.67v1.09a.58.58 0 01-.44.62l-3.1 1.12c-.3.09-.44 0-.44-.34v-2.32a.8.8 0 00-.24-.58.82.82 0 00-.58-.23H313a.8.8 0 00-.82.81v15.41a.78.78 0 00.24.58.77.77 0 00.58.24h.27a.82.82 0 00.82-.82v-6.07h-1v-3.88h4.47a.42.42 0 01.47.48v9.64a4.09 4.09 0 01-.34 1.67 4.18 4.18 0 01-.92 1.37 4.47 4.47 0 01-1.36.92 4.26 4.26 0 01-1.67.34h-1.29a4.31 4.31 0 01-1.68-.34 4.6 4.6 0 01-1.36-.92 4.34 4.34 0 01-.92-1.37 4.09 4.09 0 01-.34-1.67v-15.75a4.12 4.12 0 01.34-1.67 4.33 4.33 0 012.28-2.28 4.14 4.14 0 011.68-.34h1.29a4.09 4.09 0 011.7.34zM330.1 115.23a4.33 4.33 0 012.28 2.28 4.12 4.12 0 01.34 1.67v1.09a.59.59 0 01-.44.62l-3.1 1.12c-.3.09-.45 0-.45-.34v-2.32a.79.79 0 00-.81-.81h-.28a.83.83 0 00-.58.23.79.79 0 00-.23.58v15.41a.78.78 0 00.23.58.8.8 0 00.58.24h.28a.8.8 0 00.58-.24.82.82 0 00.23-.58v-6.07h-1v-3.88h4.47a.42.42 0 01.47.48v9.64a4.09 4.09 0 01-.34 1.67 4.34 4.34 0 01-.92 1.37 4.6 4.6 0 01-1.36.92 4.3 4.3 0 01-1.67.34h-1.3a4.26 4.26 0 01-1.67-.34 4.47 4.47 0 01-1.36-.92 4.18 4.18 0 01-.92-1.37 4.09 4.09 0 01-.34-1.67v-15.75a4.12 4.12 0 01.34-1.67 4.25 4.25 0 01.92-1.36 4.3 4.3 0 011.36-.92 4.09 4.09 0 011.67-.34h1.3a4.12 4.12 0 011.72.34zM348.4 138.51c.07.32 0 .48-.34.48H345a.64.64 0 01-.39-.14.67.67 0 01-.26-.34l-2.49-8.35V139v-.34a.4.4 0 01-.44.34h-3a.42.42 0 01-.47-.48V115.6a.41.41 0 01.47-.47h5.12a4.12 4.12 0 011.67.34 4.33 4.33 0 012.28 2.28 4.12 4.12 0 01.34 1.67V125a4.12 4.12 0 01-.65 2.27 4.45 4.45 0 01-1.7 1.55zm-6.58-12.88h1.09a.82.82 0 00.82-.82v-5.22a.8.8 0 00-.24-.58.78.78 0 00-.58-.24h-1.09zM362.92 138.51c.05.32-.09.48-.41.48h-3.1a.49.49 0 01-.51-.48l-.27-3.68h-2.12l-.27 3.68a.48.48 0 01-.51.48h-3.1c-.32 0-.46-.16-.41-.48l2.56-22.91a.49.49 0 01.54-.47h4.5a.5.5 0 01.55.47zm-4.57-7.5l-.64-9.24h-.28l-.64 9.24zM373.15 115.13a4.09 4.09 0 011.67.34 4.3 4.3 0 011.36.92 4.25 4.25 0 01.92 1.36 4.12 4.12 0 01.34 1.67V125a4.09 4.09 0 01-.34 1.67 4.33 4.33 0 01-2.28 2.28 4.09 4.09 0 01-1.67.34h-1.6v9.24a.42.42 0 01-.48.48h-3a.42.42 0 01-.48-.48V115.6a.42.42 0 01.48-.47zm.31 4.46a.82.82 0 00-.82-.82h-1.09v6.86h1.09a.8.8 0 00.58-.24.78.78 0 00.24-.58zM392.27 115.6v22.91a.42.42 0 01-.48.48h-3a.42.42 0 01-.48-.48v-9.75H386v9.75a.42.42 0 01-.47.48h-3a.42.42 0 01-.47-.48V115.6a.41.41 0 01.47-.47h3a.42.42 0 01.47.47v9.17h2.25v-9.17a.42.42 0 01.48-.47h3a.42.42 0 01.54.47zM396.87 137.05a2.22 2.22 0 012.19-2.19 2.1 2.1 0 011.53.65 2.12 2.12 0 01.65 1.54 2.19 2.19 0 01-4.37 0zM415.38 134.93a4.09 4.09 0 01-.34 1.67 4.34 4.34 0 01-.92 1.37 4.6 4.6 0 01-1.36.92 4.3 4.3 0 01-1.67.34h-1.3a4.26 4.26 0 01-1.67-.34 4.47 4.47 0 01-1.36-.92 4.18 4.18 0 01-.92-1.37 4.09 4.09 0 01-.34-1.67v-15.75a4.12 4.12 0 01.34-1.67 4.25 4.25 0 01.92-1.36 4.3 4.3 0 011.36-.92 4.09 4.09 0 011.67-.34h1.3a4.12 4.12 0 011.67.34 4.33 4.33 0 012.28 2.28 4.12 4.12 0 01.34 1.67zm-4-15.58a.79.79 0 00-.81-.81h-.28a.83.83 0 00-.58.23.79.79 0 00-.23.58v15.41a.78.78 0 00.23.58.8.8 0 00.58.24h.28a.8.8 0 00.58-.24.82.82 0 00.23-.58zM431.06 138.51c.07.32 0 .48-.34.48h-3.1a.64.64 0 01-.39-.14.67.67 0 01-.26-.34l-2.49-8.35V139v-.34a.4.4 0 01-.44.34h-3a.42.42 0 01-.47-.48V115.6a.41.41 0 01.47-.47h5.12a4.12 4.12 0 011.67.34 4.33 4.33 0 012.28 2.28 4.12 4.12 0 01.34 1.67V125a4.12 4.12 0 01-.65 2.27 4.45 4.45 0 01-1.7 1.55zm-6.58-12.88h1.09a.82.82 0 00.82-.82v-5.22a.8.8 0 00-.24-.58.78.78 0 00-.58-.24h-1.09zM442.62 115.23a4.33 4.33 0 012.28 2.28 4.12 4.12 0 01.34 1.67v1.09a.59.59 0 01-.44.62l-3.1 1.11c-.3.09-.45 0-.45-.34v-2.32a.79.79 0 00-.81-.81h-.28a.82.82 0 00-.58.23.79.79 0 00-.23.58v15.41a.78.78 0 00.23.58.78.78 0 00.58.24h.28a.8.8 0 00.58-.24.82.82 0 00.23-.58v-6.07h-.95v-3.88h4.47a.42.42 0 01.47.48v9.64a4.09 4.09 0 01-.34 1.67 4.34 4.34 0 01-.9 1.41 4.6 4.6 0 01-1.36.92 4.3 4.3 0 01-1.67.34h-1.3a4.26 4.26 0 01-1.67-.34 4.47 4.47 0 01-1.36-.92 4.18 4.18 0 01-.92-1.37 4.09 4.09 0 01-.34-1.67v-15.78a4.12 4.12 0 01.34-1.67 4.25 4.25 0 01.92-1.36 4.3 4.3 0 011.36-.92 4.09 4.09 0 011.67-.34H441a4.12 4.12 0 011.62.34zM129.69 130.3l-.21.32c-.07.1-.13.21-.2.33a15.42 15.42 0 00-.86 1.53q-.33.72-.54 1.26c-.16.41-.3.81-.41 1.19h5.28a.28.28 0 01.31.31v3.24a.28.28 0 01-.31.31h-9c-.15 0-.26-.11-.3-.31a9.38 9.38 0 01-.12-1.28 10.45 10.45 0 010-1.14 8.22 8.22 0 01.13-1.16 7.88 7.88 0 01.24-1.23c.11-.38.23-.74.34-1a9.38 9.38 0 01.44-1c.6-1.07 1.15-2 1.68-2.83s1-1.52 1.39-2.11.92-1.28 1.33-1.78a1.35 1.35 0 00.14-.71 8.6 8.6 0 010-1v-4a.8.8 0 00-.24-.58.78.78 0 00-.58-.24h-.2a.78.78 0 00-.58.24.8.8 0 00-.24.58v2.25a.59.59 0 01-.44.62l-3.11.81c-.29.1-.44 0-.44-.34V119a4.09 4.09 0 01.34-1.67 4.47 4.47 0 01.92-1.36 4.34 4.34 0 011.37-.92 4.09 4.09 0 011.67-.34h1.29a4.09 4.09 0 011.67.34 4.31 4.31 0 012.29 2.28A4.26 4.26 0 01133 119v4a8.15 8.15 0 01-.26 2 6.43 6.43 0 01-.83 1.88c-.34.54-.71 1.1-1.11 1.67s-.75 1.2-1.11 1.75zM148.06 134.73a4.26 4.26 0 01-.34 1.67 4.47 4.47 0 01-.92 1.36 4.18 4.18 0 01-1.37.92 4.09 4.09 0 01-1.67.34h-1.29a4.09 4.09 0 01-1.67-.34 4.29 4.29 0 01-1.37-.92 4.47 4.47 0 01-.92-1.36 4.26 4.26 0 01-.34-1.67V119a4.26 4.26 0 01.34-1.67 4.31 4.31 0 012.29-2.33 4.09 4.09 0 011.67-.34h1.29a4.09 4.09 0 011.67.34 4.34 4.34 0 011.37.92 4.47 4.47 0 01.92 1.36 4.26 4.26 0 01.34 1.67zm-4-15.58a.8.8 0 00-.24-.58.78.78 0 00-.58-.24H143a.78.78 0 00-.58.24.8.8 0 00-.24.58v15.41a.82.82 0 00.82.82h.27a.82.82 0 00.82-.82zM159.72 130.3l-.21.32c-.07.1-.13.21-.2.33a15.42 15.42 0 00-.86 1.53q-.33.72-.54 1.26c-.16.41-.3.81-.41 1.19h5.28a.28.28 0 01.31.31v3.24a.28.28 0 01-.31.31h-9c-.16 0-.27-.11-.31-.31a9.38 9.38 0 01-.12-1.28 10.45 10.45 0 010-1.14 8.22 8.22 0 01.13-1.16 7.88 7.88 0 01.24-1.23c.11-.38.23-.74.34-1a7.68 7.68 0 01.45-1c.59-1.07 1.14-2 1.67-2.83s1-1.52 1.39-2.11.92-1.28 1.33-1.78a1.35 1.35 0 00.14-.71 8.6 8.6 0 010-1v-4a.8.8 0 00-.24-.58.78.78 0 00-.58-.24H158a.78.78 0 00-.58.24.8.8 0 00-.24.58v2.25a.59.59 0 01-.44.62l-3.11.81c-.29.1-.44 0-.44-.34V119a4.26 4.26 0 01.34-1.67 4.47 4.47 0 01.92-1.36 4.34 4.34 0 011.37-.92 4.09 4.09 0 011.67-.34h1.29a4.09 4.09 0 011.67.34 4.31 4.31 0 012.29 2.28 4.26 4.26 0 01.34 1.67v4a8.15 8.15 0 01-.26 2 6.43 6.43 0 01-.82 2c-.34.54-.71 1.1-1.11 1.67s-.81 1.08-1.17 1.63zM178.09 134.73a4.09 4.09 0 01-.34 1.67 4.47 4.47 0 01-.92 1.36 4.18 4.18 0 01-1.37.92 4.09 4.09 0 01-1.67.34h-1.29a4.09 4.09 0 01-1.67-.34 4.29 4.29 0 01-1.37-.92 4.47 4.47 0 01-.92-1.36 4.26 4.26 0 01-.34-1.67V119a4.26 4.26 0 01.34-1.67 4.31 4.31 0 012.29-2.28 4.09 4.09 0 011.67-.34h1.29a4.09 4.09 0 011.67.34 4.34 4.34 0 011.37.92 4.47 4.47 0 01.92 1.36 4.09 4.09 0 01.34 1.67zm-4-15.58a.8.8 0 00-.24-.58.78.78 0 00-.58-.24H173a.78.78 0 00-.58.24.8.8 0 00-.24.58v15.41a.82.82 0 00.82.82h.27a.82.82 0 00.82-.82z" transform="translate(-3.6 -3.24)" />
  <path fill="#4cadde" id="swosh-outside" d="M97.9 28.85C103 36.58 89 54.23 66.54 69s-45 20.7-50.6 13.32c14.67 20.8 44.91 25.55 67.54 10.68s29.1-43.39 14.42-64.15zM11.38 75.67c-5.1-7.73 9.18-25 31.64-39.81s45-20.7 50.6-13.31C79 1.78 48.71-3 26.09 11.93S-3.31 54.9 11.38 75.67z" transform="translate(-3.6 -3.24)" />
  <path fill="#58ad8e" id="something-1" d="M98.19 29.22L98 29c.2.28.38.57.57.86a5.88 5.88 0 00-.38-.64z" transform="translate(-3.6 -3.24)" />
  <path fill="#c7e6ed" id="swosh-inside-top" d="M97.93 28.91c-5.35-6.58-24.87-2-45.38 10.33 14.58-7.22 27.32-9.09 31-3.82 4.71 6.71-7 22.46-26.13 35.17C43.8 79.66 30 84.65 21.54 84.35c-3.18-.16-4.68-1.11-5.28-1.64 6.08 6.8 28.22.86 50.28-13.68 22.39-14.76 36.36-32.35 31.39-40.12z" transform="translate(-3.6 -3.24)" />
  <path fill="#58ad8e" id="something-2" d="M16.64 83.34c-.24-.32-.49-.64-.73-1zM97.9 28.85v.06l.1.09zM15.93 82.36a2.58 2.58 0 00.31.32l-.32-.36z" transform="translate(-3.6 -3.24)" />
  <path fill="#c7e6ed" id="swosh-inside-bottom" d="M74.58 20.91c-22.29 5-43.42 23.59-43.42 23.59C15.83 56.89 7.25 69.41 11.38 75.67c5 7 24.8 2.5 45.63-10-14.58 7.22-27.32 9.1-31 3.82C21.28 62.76 33 47 52.12 34.3c14.17-9.41 28.37-14.52 36.72-13.81H89.67a6.73 6.73 0 013.52 1.49c-3.05-3.15-9.87-3.37-18.61-1.07z" transform="translate(-3.6 -3.24)" />
  <path fill="#58ad8e" id="something-3" d="M93.2 22.08l.09.09z" transform="translate(-3.6 -3.24)" />
  <path fill="#114568" id="main-text" d="M150.6 7.68a16.3 16.3 0 018.64 8.64 15.72 15.72 0 011.29 6.33v4.9a2.2 2.2 0 01-1.68 2.32L147.11 33c-1.12.34-1.67-.09-1.67-1.29v-8.42a3.11 3.11 0 00-3.1-3.1h-1a3 3 0 00-2.2.91 3 3 0 00-.9 2.19V35a9.49 9.49 0 00.52 2.45 6 6 0 001.42 2.07l16.9 12.64a8.38 8.38 0 012.64 3.68 22 22 0 01.84 4.19v22.22a15.67 15.67 0 01-1.29 6.32 16.3 16.3 0 01-8.64 8.64 15.72 15.72 0 01-6.33 1.29h-4.9a15.67 15.67 0 01-6.32-1.29 16.36 16.36 0 01-5.16-3.48 16.53 16.53 0 01-3.48-5.16 15.67 15.67 0 01-1.29-6.32V69.86a2.21 2.21 0 011.67-2.32l11.74-3.09q1.68-.53 1.68 1.29V81.6a3.07 3.07 0 003.1 3.1h1a3 3 0 002.19-.9 3 3 0 00.91-2.2v-17a14.29 14.29 0 00-.52-3 5 5 0 00-1.55-2.33l-16.64-12.76A11.69 11.69 0 01124 42.9a11.24 11.24 0 01-.84-4.77V22.65a15.72 15.72 0 011.29-6.33 16.76 16.76 0 013.48-5.16 16.53 16.53 0 015.16-3.48 15.67 15.67 0 016.32-1.29h4.9a15.72 15.72 0 016.29 1.29zM181.47 95.79a1.6 1.6 0 01-1.81 1.81h-11.48a1.6 1.6 0 01-1.81-1.81V9.1a1.6 1.6 0 011.81-1.81h11.48a1.61 1.61 0 011.81 1.81zM215.07 7.68a16.53 16.53 0 015.16 3.48 16.79 16.79 0 013.49 5.16 15.72 15.72 0 011.28 6.33v4.12a2.21 2.21 0 01-1.68 2.33l-11.74 4.25q-1.68.52-1.68-1.29v-8.77a3.09 3.09 0 00-3.09-3.1h-1a3.09 3.09 0 00-3.09 3.1V81.6a3.07 3.07 0 003.09 3.1h1a3.07 3.07 0 003.09-3.1v-23h-3.6V43.93h16.9a1.6 1.6 0 011.8 1.81v36.51a15.67 15.67 0 01-1.29 6.32 16.55 16.55 0 01-3.49 5.16 16.36 16.36 0 01-5.16 3.48 15.67 15.67 0 01-6.32 1.29h-4.9a15.63 15.63 0 01-6.32-1.29 16.37 16.37 0 01-8.65-8.64 15.67 15.67 0 01-1.29-6.32v-59.6a15.72 15.72 0 011.29-6.33 16.37 16.37 0 018.65-8.64 15.63 15.63 0 016.32-1.29h4.9a15.67 15.67 0 016.33 1.29zM258 7.68a16.37 16.37 0 018.65 8.64 15.72 15.72 0 011.35 6.33v4.12a2.21 2.21 0 01-1.68 2.33l-11.74 4.25q-1.68.52-1.68-1.29v-8.77a3.09 3.09 0 00-3.09-3.1h-1a3.09 3.09 0 00-3.1 3.1V81.6a3.07 3.07 0 003.1 3.1h1a3.07 3.07 0 003.09-3.1v-23h-3.61V43.93h16.9a1.6 1.6 0 011.81 1.81v36.51a15.67 15.67 0 01-1.29 6.32 16.37 16.37 0 01-8.71 8.64 15.67 15.67 0 01-6.32 1.29h-4.9a15.67 15.67 0 01-6.32-1.29 16.37 16.37 0 01-8.65-8.64 15.67 15.67 0 01-1.29-6.32v-59.6a15.72 15.72 0 011.29-6.33 16.37 16.37 0 018.65-8.64 15.67 15.67 0 016.32-1.29h4.9A15.67 15.67 0 01258 7.68zM314.11 95.79c.26 1.21-.17 1.81-1.29 1.81h-11.74a2.48 2.48 0 01-1.48-.51 2.57 2.57 0 01-1-1.3l-9.42-31.6V97.6l-.13-1.29a1.5 1.5 0 01-1.67 1.29h-11.46a1.59 1.59 0 01-1.8-1.81V9.1a1.6 1.6 0 011.8-1.81h19.36a15.7 15.7 0 016.32 1.29 16.37 16.37 0 018.64 8.65 15.67 15.67 0 011.29 6.32v21a15.55 15.55 0 01-2.45 8.58 16.78 16.78 0 01-6.45 5.87zM289.21 47h4.13a3 3 0 002.19-.9 3 3 0 00.91-2.2V24.19a3.09 3.09 0 00-3.1-3.09h-4.13zM358.63 95.79c.17 1.21-.34 1.81-1.55 1.81h-11.74a1.81 1.81 0 01-1.93-1.81l-1-13.93h-8l-1 13.93a1.82 1.82 0 01-1.94 1.81h-11.8c-1.2 0-1.72-.6-1.55-1.81L327.8 9.1a1.88 1.88 0 012.06-1.81h17A1.9 1.9 0 01349 9.1zm-17.29-28.38l-2.45-35h-1l-2.45 35zM385.12 7.29a15.7 15.7 0 016.32 1.29 16.37 16.37 0 018.64 8.65 15.67 15.67 0 011.29 6.32v21a15.67 15.67 0 01-1.29 6.32 16.53 16.53 0 01-3.48 5.16 16.76 16.76 0 01-5.16 3.48 15.7 15.7 0 01-6.32 1.29h-6.07v35a1.59 1.59 0 01-1.8 1.81h-11.49a1.59 1.59 0 01-1.8-1.81V9.1a1.6 1.6 0 011.8-1.81zm1.16 16.9a3.09 3.09 0 00-3.1-3.09h-4.13V47h4.13a3 3 0 002.19-.9 3 3 0 00.91-2.2zM445.27 9.1v86.69a1.59 1.59 0 01-1.8 1.81H432a1.59 1.59 0 01-1.8-1.81V58.9h-8.52v36.89a1.59 1.59 0 01-1.8 1.81h-11.5a1.6 1.6 0 01-1.81-1.81V9.1a1.6 1.6 0 011.81-1.81h11.48a1.6 1.6 0 011.8 1.81v34.7h8.52V9.1A1.6 1.6 0 01432 7.29h11.49a1.6 1.6 0 011.78 1.81z" transform="translate(-3.6 -3.24)" />
  <path fill="#049289" id="think-beyond" d="M478.67 8.87v4.79q0 .75-.78.75H474v55.64a.68.68 0 01-.77.76h-4.91a.83.83 0 01-.53-.22.69.69 0 01-.25-.54V14.41h-3.86a.67.67 0 01-.77-.75V8.87a.67.67 0 01.77-.75h14.24q.75 0 .75.75zM498.52 8.87v61.18a.68.68 0 01-.77.76h-4.92a.68.68 0 01-.77-.76v-27.9h-3.64v27.9a.68.68 0 01-.78.76h-4.91a.67.67 0 01-.77-.76V8.87a.67.67 0 01.77-.75h4.91q.78 0 .78.75v27h3.64v-27a.67.67 0 01.77-.75h4.92a.67.67 0 01.77.75zM508.86 70.05a.67.67 0 01-.77.76h-4.91a.68.68 0 01-.78-.76V8.87q0-.75.78-.75h4.91a.67.67 0 01.77.75zM530.38 8.87v61.18a.67.67 0 01-.77.76h-3.53a1.15 1.15 0 01-.64-.22 1.08 1.08 0 01-.41-.48l-5.85-30.32v30.26a.68.68 0 01-.78.76h-4.91a.67.67 0 01-.77-.76V8.87a.67.67 0 01.77-.75h3.64a1.06 1.06 0 01.64.22 1.08 1.08 0 01.41.48l5.74 29.78V8.87q0-.75.78-.75h4.91a.67.67 0 01.77.75zM552.79 8.36a.65.65 0 010 .51l-7.4 28.39 7.29 32.79a.52.52 0 010 .51.57.57 0 01-.5.25h-5.47a1.07 1.07 0 01-.6-.19 1 1 0 01-.39-.46l-4-24.68-.94 2.26v22.31a.68.68 0 01-.77.76H535a.68.68 0 01-.77-.76V8.87a.67.67 0 01.77-.75h4.92a.67.67 0 01.77.75V33l5.08-24.19a1 1 0 011.05-.65h5.52a.43.43 0 01.45.2zM479.86 108.07a4.91 4.91 0 011.16 1.77 6.53 6.53 0 01.39 2.26v20.49a6.34 6.34 0 01-.56 2.63 6.91 6.91 0 01-1.49 2.15 7 7 0 01-2.21 1.45 6.82 6.82 0 01-2.7.54h-8.28a.68.68 0 01-.78-.76V77.43a.68.68 0 01.78-.76h8.28a6.82 6.82 0 012.7.54 7 7 0 012.21 1.45 6.91 6.91 0 011.49 2.15 6.37 6.37 0 01.56 2.63v17.91a5.86 5.86 0 01-1.55 4.14 6.67 6.67 0 01-2 1.4 5.34 5.34 0 012 1.18zm-4.92-24.36a1.22 1.22 0 00-.38-.91 1.31 1.31 0 00-.94-.38h-1.77v21.67h1.77a1.3 1.3 0 00.94-.37 1.22 1.22 0 00.38-.92zm0 27.53a1.2 1.2 0 00-.38-.91 1.31 1.31 0 00-.94-.38h-1.77v23.66h1.77a1.31 1.31 0 00.94-.38 1.2 1.2 0 00.38-.91zM498.32 133.82v4.78a.68.68 0 01-.77.76h-12a.68.68 0 01-.78-.76V77.43a.68.68 0 01.78-.76h12a.68.68 0 01.77.76v4.78a.67.67 0 01-.77.75h-6.3v20.27h5.47a.67.67 0 01.77.76v4.78a.67.67 0 01-.77.75h-5.47v23.55h6.3a.67.67 0 01.77.75zM520.31 76.91a.51.51 0 01.05.52L514 112.21v26.39a.67.67 0 01-.77.76h-5a.67.67 0 01-.77-.76v-26.39l-6.35-34.78a.51.51 0 01.05-.52.57.57 0 01.5-.24h5.85a.8.8 0 01.89.76l2.2 26.07h.23l2.2-26.07a.8.8 0 01.89-.76h5.85a.57.57 0 01.54.24zM538.49 133a6.57 6.57 0 01-.55 2.64 7.08 7.08 0 01-1.49 2.15 7.43 7.43 0 01-2.21 1.45 7 7 0 01-2.71.53h-2.1a7 7 0 01-2.7-.53 7.18 7.18 0 01-2.21-1.45 6.91 6.91 0 01-1.52-2.19 6.41 6.41 0 01-.55-2.64V83.07a6.41 6.41 0 01.55-2.64 6.91 6.91 0 011.49-2.15 7.18 7.18 0 012.21-1.45 7 7 0 012.7-.53h2.1a7 7 0 012.71.53 7.43 7.43 0 012.21 1.45 7.08 7.08 0 011.49 2.15 6.57 6.57 0 01.55 2.64zM532 83.34a1.23 1.23 0 00-.39-.92 1.3 1.3 0 00-.94-.37h-.44a1.3 1.3 0 00-.94.37 1.26 1.26 0 00-.38.92v49.35a1.26 1.26 0 00.38.92 1.3 1.3 0 00.94.37h.44a1.3 1.3 0 00.94-.37 1.23 1.23 0 00.39-.92zM559.73 77.43v61.17a.67.67 0 01-.77.76h-3.53a1.24 1.24 0 01-1-.7l-5.85-30.32v30.26a.68.68 0 01-.78.76h-4.91a.67.67 0 01-.77-.76V77.43a.67.67 0 01.77-.76h3.64a1.12 1.12 0 01.64.22 1.08 1.08 0 01.41.48l5.74 29.79V77.43a.68.68 0 01.78-.76h4.9a.67.67 0 01.73.76zM572.64 76.67a6.86 6.86 0 012.71.54 6.89 6.89 0 013.7 3.6 6.36 6.36 0 01.55 2.63v49.15a6.33 6.33 0 01-.55 2.63 6.89 6.89 0 01-3.7 3.6 6.86 6.86 0 01-2.71.54h-8.28a.67.67 0 01-.77-.76V77.43a.67.67 0 01.77-.76zm.5 7a1.23 1.23 0 00-.39-.91 1.28 1.28 0 00-.93-.38h-1.77v51.19h1.77a1.28 1.28 0 00.93-.38 1.21 1.21 0 00.39-.91z" transform="translate(-3.6 -3.24)" />
</svg>